<svg version="1.0" xmlns="http://www.w3.org/2000/svg"
 width="230.000000pt" height="230.000000pt" viewBox="0 0 230.000000 230.000000"
 preserveAspectRatio="xMidYMid meet">

<g transform="translate(0.000000,230.000000) scale(0.100000,-0.100000)"
fill="#000000" stroke="none">
<path d="M1073 2166 c21 -16 22 -70 3 -108 -13 -24 -13 -28 0 -28 8 0 14 -4
14 -10 0 -5 -8 -10 -19 -10 -37 0 -197 -52 -262 -84 -86 -44 -139 -83 -222
-163 -79 -76 -131 -149 -177 -248 -32 -71 -80 -254 -80 -311 0 -27 -5 -33 -27
-37 -16 -3 -30 -4 -32 -1 -6 6 21 64 30 64 5 0 9 5 9 11 0 6 -10 9 -22 7 -13
-2 -22 -9 -20 -16 1 -7 -10 -33 -24 -59 -27 -45 -27 -45 -40 -22 -11 21 -10
29 7 58 11 18 18 36 15 38 -7 8 -36 -5 -35 -14 3 -19 -2 -33 -11 -33 -5 0 -10
11 -10 25 0 20 -5 25 -24 25 -24 0 -44 -15 -29 -22 5 -1 16 -17 25 -34 14 -26
15 -34 5 -48 -12 -16 -16 -14 -40 23 -15 22 -27 47 -27 56 0 9 -9 15 -24 15
-33 0 -39 -13 -18 -36 10 -10 30 -40 45 -67 31 -52 47 -58 70 -24 l15 22 21
-25 c22 -27 26 -25 56 26 9 13 19 16 47 10 35 -6 37 -9 43 -54 37 -302 204
-542 470 -675 87 -43 153 -63 275 -83 52 -8 98 -21 102 -27 13 -20 9 -32 -14
-42 -12 -6 -26 -18 -32 -28 -12 -20 -14 -18 72 -78 36 -25 41 -33 32 -45 -16
-18 -54 -18 -70 1 -17 21 -30 19 -30 -4 0 -39 75 -42 119 -5 40 33 30 52 -44
88 -56 26 -68 48 -28 54 11 2 26 -4 33 -13 17 -20 30 -19 30 3 0 11 -11 24
-25 30 -14 7 -25 20 -25 31 0 16 11 22 58 30 140 27 171 35 240 61 104 40 197
98 280 176 88 81 148 163 201 275 48 100 68 171 84 301 11 92 13 98 34 98 18
0 23 -6 23 -25 0 -14 -7 -28 -15 -31 -34 -13 2 -24 80 -24 73 0 86 3 95 19 12
23 1 34 -20 20 -8 -5 -32 -9 -52 -9 -36 0 -38 2 -38 31 0 31 1 32 40 26 38 -5
40 -4 40 20 0 21 -3 23 -14 14 -24 -20 -70 -10 -74 17 -3 20 1 22 42 22 25 0
48 -5 51 -10 9 -15 25 -2 18 15 -4 12 -25 15 -97 15 -78 -1 -88 -3 -73 -14 9
-7 17 -25 17 -40 0 -22 -4 -26 -30 -26 -27 0 -30 3 -30 33 0 54 -53 207 -105
303 -59 109 -185 240 -290 301 -87 51 -224 98 -333 115 l-83 13 3 77 c3 68 1
78 -14 78 -14 0 -16 -8 -11 -50 3 -27 3 -50 -1 -50 -3 0 -34 23 -68 50 -34 28
-71 50 -82 50 -20 -1 -20 -1 -3 -14z m82 -115 c-4 -17 -11 -31 -16 -31 -6 0
-8 4 -4 9 3 5 -4 13 -16 16 -15 5 -19 12 -15 28 3 12 6 31 6 42 0 18 2 17 26
-7 21 -21 25 -31 19 -57z m50 -1 c18 -20 17 -20 -8 -20 -20 0 -27 5 -27 20 0
11 4 20 8 20 5 0 17 -9 27 -20z m220 -71 c43 -10 109 -33 145 -49 64 -30 191
-110 189 -120 0 -3 -15 -17 -32 -31 l-32 -27 -71 43 c-127 78 -274 125 -387
125 -43 0 -45 1 -51 35 -4 20 -5 39 -2 44 9 14 152 2 241 -20z m-279 -1 c-3
-13 -6 -30 -6 -39 0 -12 -13 -19 -47 -24 -113 -17 -266 -80 -354 -147 -24 -19
-49 -37 -56 -41 -14 -9 -73 23 -73 40 0 15 119 104 190 142 91 48 227 87 319
90 30 1 33 -1 27 -21z m84 -176 c0 -4 18 -6 39 -4 56 6 183 -35 252 -80 33
-20 59 -42 59 -47 0 -12 -285 -245 -305 -249 -8 -2 -15 1 -15 6 0 6 -11 87
-25 182 -28 195 -29 200 -15 200 6 0 10 -3 10 -8z m602 -59 c55 -60 96 -120
137 -202 35 -69 71 -195 71 -248 0 -34 0 -34 -42 -31 l-42 3 -12 60 c-26 128
-80 239 -165 337 -27 31 -49 59 -49 63 0 9 43 65 51 65 3 0 26 -21 51 -47z
m-712 9 c0 -30 -28 -269 -36 -300 -3 -15 -10 -22 -19 -19 -20 8 -260 184 -275
202 -16 20 5 45 69 81 76 43 141 63 204 61 53 -1 57 -3 57 -25z m-504 -35 l21
-32 -42 -55 c-90 -118 -146 -251 -161 -379 -6 -56 -9 -62 -33 -67 -14 -3 -32
-8 -40 -10 -11 -4 -13 9 -8 73 8 106 29 181 82 288 41 82 135 215 153 215 4 0
16 -15 28 -33z m1054 -117 c23 -12 102 -132 123 -188 27 -69 36 -120 23 -131
-6 -5 -61 -6 -136 -1 -69 5 -150 10 -180 11 -68 3 -83 8 -76 25 7 19 215 294
222 294 3 0 14 -4 24 -10z m-865 -121 c38 -48 86 -106 105 -129 46 -55 52 -67
41 -75 -12 -7 -353 -65 -382 -65 -28 0 -25 63 6 155 40 120 105 210 145 203 8
-2 46 -42 85 -89z m1240 -280 c10 -31 -4 -133 -32 -229 -29 -102 -87 -215
-149 -293 -45 -56 -47 -57 -66 -40 -43 38 -42 50 6 114 80 106 146 278 146
380 0 65 15 89 54 89 26 0 36 -5 41 -21z m-218 -88 c-3 -39 -18 -99 -33 -138
-27 -70 -91 -174 -111 -180 -6 -2 -68 66 -137 152 -109 135 -136 174 -123 175
1 1 74 14 162 29 88 16 180 30 204 30 l44 1 -6 -69z m-1406 7 c4 -7 13 -41 19
-77 17 -100 64 -208 130 -299 33 -46 60 -86 60 -89 0 -3 -10 -18 -21 -35 l-21
-29 -24 22 c-37 35 -122 163 -150 225 -31 71 -64 205 -64 263 l0 44 32 -7 c18
-3 35 -12 39 -18z m339 -13 c129 -8 184 -21 176 -40 -4 -11 -199 -277 -224
-305 -8 -10 -73 76 -103 137 -33 70 -65 184 -56 207 5 11 18 14 54 11 26 -2
95 -6 153 -10z m553 -147 c53 -28 297 -220 297 -233 0 -46 -252 -165 -350
-165 -22 0 -23 1 -16 98 11 150 33 312 42 312 3 0 15 -5 27 -12z m-219 -25 c5
-13 56 -351 56 -372 0 -10 -132 10 -187 29 -73 25 -187 92 -191 112 -4 22 277
248 309 248 4 0 10 -8 13 -17z m671 -309 l30 -25 -40 -36 c-136 -121 -352
-212 -502 -213 -42 0 -43 1 -43 33 0 17 4 37 8 42 4 6 43 17 87 24 134 22 281
89 375 170 42 37 47 37 85 5z m-1044 -37 c104 -79 231 -130 352 -143 78 -8 93
-17 102 -63 l7 -34 -88 6 c-152 10 -302 68 -425 164 l-72 56 27 24 c36 30 45
29 97 -10z"/>
</g>
</svg>